<?xml version="1.0" standalone="no"?>
<!DOCTYPE svg PUBLIC "-//W3C//DTD SVG 20010904//EN"
 "http://www.w3.org/TR/2001/REC-SVG-20010904/DTD/svg10.dtd">
<svg version="1.0" xmlns="http://www.w3.org/2000/svg"
 width="136.000000pt" height="173.000000pt" viewBox="0 0 136.000000 173.000000"
 preserveAspectRatio="xMidYMid meet">
<metadata>
Created by potrace 1.10, written by Peter Selinger 2001-2011
</metadata>
<g transform="translate(0.000000,173.000000) scale(0.100000,-0.100000)"
fill="#000000" stroke="none">
<path d="M186 1672 c-8 -13 1032 -22 1049 -9 5 4 -112 7 -260 7 -149 0 -385 3
-526 7 -182 4 -258 3 -263 -5z"/>
<path d="M122 1651 c-7 -4 164 -11 379 -14 507 -9 669 -9 669 1 0 4 -231 9
-513 11 -281 1 -514 5 -517 6 -3 2 -12 0 -18 -4z"/>
<path d="M85 1621 c-4 -8 18 -11 67 -11 40 0 265 -3 501 -7 321 -5 427 -3 427
5 0 9 -122 12 -479 12 -264 0 -486 3 -494 6 -8 3 -18 1 -22 -5z"/>
<path d="M55 1581 c-4 -8 110 -11 392 -12 219 0 420 -1 447 -2 27 -1 51 3 53
9 5 15 -882 20 -892 5z"/>
<path d="M50 1540 c0 -6 135 -10 385 -10 212 0 388 0 392 -1 4 0 9 4 11 10 3
8 -114 11 -392 11 -257 0 -396 -4 -396 -10z"/>
<path d="M40 1500 c0 -8 266 -15 558 -13 59 0 68 -11 20 -22 -31 -8 -29 -9 30
-18 34 -5 62 -14 62 -18 0 -5 11 -9 25 -9 48 0 25 19 -32 26 -53 6 -55 7 -32
20 13 7 18 13 10 14 -11 0 -9 4 5 15 17 13 -19 14 -313 15 -216 0 -333 -4
-333 -10z"/>
<path d="M45 1450 c-4 -6 -5 -13 -3 -15 2 -2 111 -5 241 -6 130 0 237 -4 237
-8 0 -21 -91 -31 -279 -31 -194 0 -201 -1 -201 -20 0 -19 8 -20 168 -22 151
-3 164 -4 140 -17 -41 -21 -34 -29 20 -24 28 3 55 13 67 25 20 20 20 20 -12
16 -18 -3 -33 -1 -33 4 0 13 47 28 90 28 40 0 110 27 110 42 0 5 -12 6 -27 3
-26 -6 -26 -5 -10 8 9 8 17 16 17 18 0 2 -117 6 -259 7 -189 3 -261 1 -266 -8z"/>
<path d="M755 1400 c-4 -6 5 -10 19 -10 14 0 26 5 26 10 0 6 -9 10 -19 10 -11
0 -23 -4 -26 -10z"/>
<path d="M785 1369 c-4 -5 12 -9 35 -9 23 0 39 4 36 8 -7 12 -64 13 -71 1z"/>
<path d="M848 1333 c12 -2 32 -2 45 0 12 2 2 4 -23 4 -25 0 -35 -2 -22 -4z"/>
<path d="M40 1290 c0 -19 7 -20 103 -20 l102 0 -25 -20 -25 -20 55 1 c49 0 90
15 90 33 0 3 -21 6 -47 6 l-48 1 28 15 c15 8 27 16 27 19 0 2 -58 4 -130 4
-124 1 -130 0 -130 -19z"/>
<path d="M913 1293 c15 -2 37 -2 50 0 12 2 0 4 -28 4 -27 0 -38 -2 -22 -4z"/>
<path d="M935 1260 c3 -5 24 -10 45 -10 21 0 42 5 45 10 4 6 -13 10 -45 10
-32 0 -49 -4 -45 -10z"/>
<path d="M40 1215 c0 -21 108 -21 136 0 17 13 12 14 -58 15 -63 0 -78 -3 -78
-15z"/>
<path d="M980 1220 c0 -6 23 -10 50 -10 28 0 50 4 50 9 0 4 -22 9 -50 10 -27
0 -50 -4 -50 -9z"/>
<path d="M630 1191 c0 -11 -3 -26 -6 -35 -4 -11 -1 -16 10 -16 12 0 16 10 16
35 0 19 -4 35 -10 35 -5 0 -10 -9 -10 -19z"/>
<path d="M180 1192 c-25 -4 -50 -19 -50 -31 0 -3 24 -6 54 -5 50 0 86 15 86
33 0 8 -45 9 -90 3z"/>
<path d="M1038 1183 c18 -2 45 -2 60 0 15 2 0 4 -33 4 -33 0 -45 -2 -27 -4z"/>
<path d="M50 1139 c0 -16 4 -19 23 -14 12 4 29 13 37 21 12 12 9 14 -23 14
-31 0 -37 -3 -37 -21z"/>
<path d="M1068 1143 c17 -2 47 -2 65 0 17 2 3 4 -33 4 -36 0 -50 -2 -32 -4z"/>
<path d="M73 1094 c-24 -27 -32 -47 -11 -26 7 7 40 12 79 12 63 0 79 7 79 36
0 2 -28 4 -62 4 -55 0 -66 -4 -85 -26z"/>
<path d="M610 1095 c0 -14 5 -25 10 -25 6 0 10 11 10 25 0 14 -4 25 -10 25 -5
0 -10 -11 -10 -25z"/>
<path d="M648 1114 c-8 -16 -3 -37 10 -41 6 -3 12 1 12 9 0 18 -17 42 -22 32z"/>
<path d="M1088 1103 c17 -2 47 -2 65 0 17 2 3 4 -33 4 -36 0 -50 -2 -32 -4z"/>
<path d="M1103 1063 c20 -2 54 -2 75 0 20 2 3 4 -38 4 -41 0 -58 -2 -37 -4z"/>
<path d="M597 1043 c-4 -3 -7 -14 -7 -24 0 -12 6 -16 20 -12 22 6 28 43 7 43
-8 0 -17 -3 -20 -7z"/>
<path d="M644 1036 c-7 -19 3 -36 22 -36 10 0 14 8 12 22 -4 26 -26 36 -34 14z"/>
<path d="M42 1024 c2 -12 18 -16 76 -17 63 -2 72 0 72 16 0 15 -10 17 -76 17
-63 0 -75 -3 -72 -16z"/>
<path d="M1080 1030 c0 -6 30 -10 71 -10 44 0 68 4 64 10 -3 6 -35 10 -71 10
-36 0 -64 -4 -64 -10z"/>
<path d="M1080 993 c0 -5 32 -9 70 -11 45 -2 70 1 70 7 0 7 -27 11 -70 11 -38
0 -70 -3 -70 -7z"/>
<path d="M577 960 c-4 -17 0 -20 24 -20 22 0 29 5 29 20 0 14 -7 20 -24 20
-15 0 -26 -7 -29 -20z"/>
<path d="M640 960 c0 -16 7 -20 31 -20 24 0 30 3 25 16 -3 9 -6 18 -6 20 0 2
-11 4 -25 4 -18 0 -25 -5 -25 -20z"/>
<path d="M50 945 c0 -12 14 -15 70 -15 56 0 70 3 70 15 0 12 -14 15 -70 15
-56 0 -70 -3 -70 -15z"/>
<path d="M1081 956 c7 -7 129 -10 136 -3 3 4 -27 7 -67 7 -40 0 -71 -2 -69 -4z"/>
<path d="M1080 920 c0 -6 30 -10 70 -10 40 0 70 4 70 10 0 6 -30 10 -70 10
-40 0 -70 -4 -70 -10z"/>
<path d="M567 913 c-19 -18 -6 -38 25 -37 26 1 34 6 36 22 3 18 -2 22 -26 22
-16 0 -32 -3 -35 -7z"/>
<path d="M642 898 c2 -18 10 -23 36 -25 29 -1 33 2 30 20 -2 17 -11 23 -36 25
-30 3 -33 1 -30 -20z"/>
<path d="M47 884 c-18 -18 -1 -24 68 -24 43 0 75 4 75 10 0 6 -24 10 -54 10
-30 0 -61 2 -68 5 -8 3 -17 2 -21 -1z"/>
<path d="M1081 876 c9 -8 139 -13 139 -5 0 5 -32 9 -72 9 -39 0 -69 -2 -67 -4z"/>
<path d="M550 851 c0 -5 -3 -17 -6 -26 -6 -14 0 -16 37 -13 36 2 44 7 44 23 0
16 -8 21 -37 23 -21 2 -38 -1 -38 -7z"/>
<path d="M640 840 c0 -21 19 -30 60 -30 26 0 28 3 22 21 -11 29 -82 36 -82 9z"/>
<path d="M1113 843 c20 -2 54 -2 75 0 20 2 3 4 -38 4 -41 0 -58 -2 -37 -4z"/>
<path d="M42 798 c3 -9 30 -14 76 -16 60 -2 72 0 72 13 0 12 -14 15 -76 15
-56 0 -75 -3 -72 -12z"/>
<path d="M1080 800 c0 -6 32 -10 72 -10 39 0 68 3 65 6 -11 11 -137 14 -137 4z"/>
<path d="M540 786 c0 -7 11 -25 25 -40 34 -36 105 -37 140 -1 36 36 33 56 -7
48 -18 -3 -40 -9 -49 -14 -9 -4 -20 -4 -25 0 -17 16 -84 21 -84 7z m117 -27
c34 16 50 14 27 -4 -29 -22 -78 -19 -100 6 l-19 22 34 -18 c27 -13 39 -15 58
-6z"/>
<path d="M1080 770 c0 -6 30 -10 70 -10 40 0 70 4 70 10 0 6 -30 10 -70 10
-40 0 -70 -4 -70 -10z"/>
<path d="M44 731 c-15 -15 5 -21 71 -21 41 0 75 4 75 9 0 9 -138 20 -146 12z"/>
<path d="M1080 723 c0 -5 32 -8 70 -8 39 0 70 3 70 8 0 4 -31 7 -70 7 -38 0
-70 -3 -70 -7z"/>
<path d="M1113 693 c20 -2 54 -2 75 0 20 2 3 4 -38 4 -41 0 -58 -2 -37 -4z"/>
<path d="M495 669 c-88 -15 -100 -25 -160 -140 -30 -59 -55 -110 -55 -113 0
-3 160 -6 355 -6 l355 0 -57 114 c-56 112 -57 113 -106 131 -38 14 -67 17
-126 12 -42 -3 -96 -2 -121 2 -25 3 -63 4 -85 0z m125 -24 c5 -3 10 -44 10
-93 l0 -87 -134 -2 -134 -1 24 55 c50 113 63 131 91 136 34 6 129 1 143 -8z
m155 9 l47 -7 44 -95 c24 -52 42 -97 40 -100 -3 -2 -37 1 -77 8 -40 7 -99 10
-131 6 l-59 -6 3 93 3 92 30 6 c44 10 48 10 100 3z m-355 -31 c-1 -17 -96
-187 -106 -190 -6 -2 12 41 40 97 44 87 67 119 66 93z m494 -93 c49 -108 52
-115 35 -104 -10 6 -99 187 -99 200 0 2 4 4 9 4 4 0 29 -45 55 -100z m-291
-87 c4 -2 5 -9 2 -14 -9 -13 -288 -12 -283 2 2 5 34 12 72 15 38 2 72 7 75 10
6 6 121 -5 134 -13z m301 -13 c7 -7 -40 -10 -137 -10 -137 0 -159 4 -139 25
10 10 264 -3 276 -15z"/>
<path d="M40 650 c0 -6 32 -10 75 -10 43 0 75 4 75 10 0 6 -32 10 -75 10 -43
0 -75 -4 -75 -10z"/>
<path d="M1080 633 c0 -15 10 -18 62 -20 58 -2 77 5 78 30 0 4 -31 7 -70 7
-60 0 -70 -2 -70 -17z m73 0 c-7 -2 -19 -2 -25 0 -7 3 -2 5 12 5 14 0 19 -2
13 -5z"/>
<path d="M40 570 c0 -6 32 -10 75 -10 43 0 75 4 75 10 0 6 -32 10 -75 10 -43
0 -75 -4 -75 -10z"/>
<path d="M1080 555 c0 -12 14 -15 68 -15 54 0 69 3 69 15 0 12 -15 15 -69 15
-54 0 -68 -3 -68 -15z"/>
<path d="M44 498 c-3 -4 30 -8 73 -7 89 1 87 6 -5 11 -35 3 -65 1 -68 -4z"/>
<path d="M1080 485 c0 -12 14 -15 70 -15 51 0 68 3 65 13 -3 7 -30 13 -70 15
-52 2 -65 -1 -65 -13z"/>
<path d="M40 420 c0 -6 32 -10 75 -10 43 0 75 4 75 10 0 6 -32 10 -75 10 -43
0 -75 -4 -75 -10z"/>
<path d="M1080 410 c0 -6 29 -10 72 -10 39 0 69 3 65 6 -11 11 -137 15 -137 4z"/>
<path d="M413 242 c-81 -3 -83 -3 -83 -27 0 -14 5 -25 10 -25 6 0 10 9 10 20
0 15 7 20 28 20 l27 0 0 -90 c0 -79 -2 -90 -17 -90 -10 0 -18 -4 -18 -10 0
-13 87 -13 95 0 3 5 -3 10 -14 10 -20 0 -21 6 -21 90 l0 90 26 0 c17 0 28 -6
31 -20 8 -29 24 -25 20 5 -1 13 -5 26 -7 27 -3 2 -42 2 -87 0z"/>
<path d="M520 241 c0 -6 7 -11 15 -11 12 0 15 -17 15 -90 0 -73 -3 -90 -15
-90 -8 0 -15 -4 -15 -10 0 -13 67 -13 75 0 3 5 -2 10 -12 10 -16 0 -18 10 -19
85 0 47 1 85 2 85 1 0 19 -43 40 -95 21 -53 41 -92 45 -88 3 5 21 46 39 93 17
47 34 87 36 89 2 2 4 -35 4 -82 0 -80 -2 -87 -20 -87 -11 0 -20 -4 -20 -9 0
-5 23 -9 50 -9 28 -1 50 3 50 9 0 5 -9 9 -20 9 -19 0 -20 7 -20 90 0 73 3 90
15 90 8 0 15 4 15 9 0 5 -14 8 -32 6 -30 -2 -33 -7 -63 -85 l-32 -82 -33 81
c-24 59 -37 81 -50 81 -10 0 -25 3 -34 6 -9 3 -16 1 -16 -5z"/>
<path d="M800 238 c0 -4 7 -8 15 -8 12 0 15 -16 15 -84 0 -76 2 -86 22 -100
31 -22 84 -20 108 4 17 17 20 33 20 100 0 75 1 80 22 80 12 0 18 3 14 7 -10
10 -76 11 -76 1 0 -4 7 -8 15 -8 12 0 15 -14 15 -68 0 -84 -16 -112 -65 -112
-45 0 -55 20 -55 109 0 66 1 71 22 71 12 0 18 3 14 7 -10 10 -86 11 -86 1z"/>
</g>
</svg>
